<?xml version="1.0" encoding="utf-8" standalone="no"?>
<!DOCTYPE svg PUBLIC "-//W3C//DTD SVG 1.1//EN"
  "http://www.w3.org/Graphics/SVG/1.1/DTD/svg11.dtd">
<svg xmlns:xlink="http://www.w3.org/1999/xlink" width="720pt" height="288pt" viewBox="0 0 720 288" xmlns="http://www.w3.org/2000/svg" version="1.1">
 <metadata>
  <rdf:RDF xmlns:dc="http://purl.org/dc/elements/1.1/" xmlns:cc="http://creativecommons.org/ns#" xmlns:rdf="http://www.w3.org/1999/02/22-rdf-syntax-ns#">
   <cc:Work>
    <dc:type rdf:resource="http://purl.org/dc/dcmitype/StillImage"/>
    <dc:date>2025-03-17T12:13:47.052108</dc:date>
    <dc:format>image/svg+xml</dc:format>
    <dc:creator>
     <cc:Agent>
      <dc:title>Matplotlib v3.10.1, https://matplotlib.org/</dc:title>
     </cc:Agent>
    </dc:creator>
   </cc:Work>
  </rdf:RDF>
 </metadata>
 <defs>
  <style type="text/css">*{stroke-linejoin: round; stroke-linecap: butt}</style>
 </defs>
 <g id="figure_1">
  <g id="patch_1">
   <path d="M 0 288 
L 720 288 
L 720 0 
L 0 0 
z
" style="fill: #ffffff"/>
  </g>
  <g id="axes_1">
   <g id="patch_2">
    <path d="M 90 256.32 
L 648 256.32 
L 648 34.56 
L 90 34.56 
z
" style="fill: #ffffff"/>
   </g>
   <g id="matplotlib.axis_1">
    <g id="xtick_1">
     <g id="line2d_1">
      <defs>
       <path id="m68d9d40f58" d="M 0 0 
L 0 3.5 
" style="stroke: #000000; stroke-width: 0.8"/>
      </defs>
      <g>
       <use xlink:href="#m68d9d40f58" x="229.5" y="256.32" style="stroke: #000000; stroke-width: 0.8"/>
      </g>
     </g>
     <g id="text_1">
      <!-- $-\ell$ -->
      <g transform="translate(223.2 270.918437) scale(0.1 -0.1)">
       <defs>
        <path id="DejaVuSans-2212" d="M 678 2272 
L 4684 2272 
L 4684 1741 
L 678 1741 
L 678 2272 
z
" transform="scale(0.015625)"/>
        <path id="DejaVuSans-Oblique-2113" d="M 950 838 
Q 1078 213 1350 213 
Q 1531 213 1766 572 
L 2181 572 
Q 1994 253 1775 88 
Q 1538 -91 1319 -91 
Q 831 -91 634 344 
L 400 0 
L -88 0 
Q 250 459 500 888 
Q 469 1131 469 1397 
Q 469 1872 566 2347 
Q 931 4131 1256 4497 
Q 1481 4750 1866 4750 
Q 2256 4750 2256 4209 
Q 2253 3966 2197 3675 
Q 1972 2484 950 838 
z
M 947 1656 
Q 1531 2744 1709 3613 
Q 1803 4072 1803 4191 
Q 1803 4406 1725 4406 
Q 1384 4134 1081 2516 
Q 997 2063 947 1656 
z
" transform="scale(0.015625)"/>
       </defs>
       <use xlink:href="#DejaVuSans-2212" transform="translate(0 0.78125)"/>
       <use xlink:href="#DejaVuSans-Oblique-2113" transform="translate(83.789062 0.78125)"/>
      </g>
     </g>
    </g>
    <g id="xtick_2">
     <g id="line2d_2">
      <g>
       <use xlink:href="#m68d9d40f58" x="508.5" y="256.32" style="stroke: #000000; stroke-width: 0.8"/>
      </g>
     </g>
     <g id="text_2">
      <!-- $\ell$ -->
      <g transform="translate(506.4 270.918437) scale(0.1 -0.1)">
       <use xlink:href="#DejaVuSans-Oblique-2113" transform="translate(0 0.78125)"/>
      </g>
     </g>
    </g>
    <g id="text_3">
     <!-- $x$ -->
     <g transform="translate(366 284.596563) scale(0.1 -0.1)">
      <defs>
       <path id="DejaVuSans-Oblique-78" d="M 3841 3500 
L 2234 1784 
L 3219 0 
L 2559 0 
L 1819 1388 
L 531 0 
L -166 0 
L 1556 1844 
L 641 3500 
L 1300 3500 
L 1972 2234 
L 3144 3500 
L 3841 3500 
z
" transform="scale(0.015625)"/>
      </defs>
      <use xlink:href="#DejaVuSans-Oblique-78" transform="translate(0 0.3125)"/>
     </g>
    </g>
   </g>
   <g id="matplotlib.axis_2">
    <g id="ytick_1">
     <g id="line2d_3">
      <defs>
       <path id="m205ed77ffb" d="M 0 0 
L -3.5 0 
" style="stroke: #000000; stroke-width: 0.8"/>
      </defs>
      <g>
       <use xlink:href="#m205ed77ffb" x="90" y="253.606236" style="stroke: #000000; stroke-width: 0.8"/>
      </g>
     </g>
     <g id="text_4">
      <!-- −0.2 -->
      <g transform="translate(58.717187 257.405455) scale(0.1 -0.1)">
       <defs>
        <path id="DejaVuSans-30" d="M 2034 4250 
Q 1547 4250 1301 3770 
Q 1056 3291 1056 2328 
Q 1056 1369 1301 889 
Q 1547 409 2034 409 
Q 2525 409 2770 889 
Q 3016 1369 3016 2328 
Q 3016 3291 2770 3770 
Q 2525 4250 2034 4250 
z
M 2034 4750 
Q 2819 4750 3233 4129 
Q 3647 3509 3647 2328 
Q 3647 1150 3233 529 
Q 2819 -91 2034 -91 
Q 1250 -91 836 529 
Q 422 1150 422 2328 
Q 422 3509 836 4129 
Q 1250 4750 2034 4750 
z
" transform="scale(0.015625)"/>
        <path id="DejaVuSans-2e" d="M 684 794 
L 1344 794 
L 1344 0 
L 684 0 
L 684 794 
z
" transform="scale(0.015625)"/>
        <path id="DejaVuSans-32" d="M 1228 531 
L 3431 531 
L 3431 0 
L 469 0 
L 469 531 
Q 828 903 1448 1529 
Q 2069 2156 2228 2338 
Q 2531 2678 2651 2914 
Q 2772 3150 2772 3378 
Q 2772 3750 2511 3984 
Q 2250 4219 1831 4219 
Q 1534 4219 1204 4116 
Q 875 4013 500 3803 
L 500 4441 
Q 881 4594 1212 4672 
Q 1544 4750 1819 4750 
Q 2544 4750 2975 4387 
Q 3406 4025 3406 3419 
Q 3406 3131 3298 2873 
Q 3191 2616 2906 2266 
Q 2828 2175 2409 1742 
Q 1991 1309 1228 531 
z
" transform="scale(0.015625)"/>
       </defs>
       <use xlink:href="#DejaVuSans-2212"/>
       <use xlink:href="#DejaVuSans-30" transform="translate(83.789062 0)"/>
       <use xlink:href="#DejaVuSans-2e" transform="translate(147.412109 0)"/>
       <use xlink:href="#DejaVuSans-32" transform="translate(179.199219 0)"/>
      </g>
     </g>
    </g>
    <g id="ytick_2">
     <g id="line2d_4">
      <g>
       <use xlink:href="#m205ed77ffb" x="90" y="218.77824" style="stroke: #000000; stroke-width: 0.8"/>
      </g>
     </g>
     <g id="text_5">
      <!-- 0.0 -->
      <g transform="translate(67.096875 222.577458) scale(0.1 -0.1)">
       <use xlink:href="#DejaVuSans-30"/>
       <use xlink:href="#DejaVuSans-2e" transform="translate(63.623047 0)"/>
       <use xlink:href="#DejaVuSans-30" transform="translate(95.410156 0)"/>
      </g>
     </g>
    </g>
    <g id="ytick_3">
     <g id="line2d_5">
      <g>
       <use xlink:href="#m205ed77ffb" x="90" y="183.950243" style="stroke: #000000; stroke-width: 0.8"/>
      </g>
     </g>
     <g id="text_6">
      <!-- 0.2 -->
      <g transform="translate(67.096875 187.749461) scale(0.1 -0.1)">
       <use xlink:href="#DejaVuSans-30"/>
       <use xlink:href="#DejaVuSans-2e" transform="translate(63.623047 0)"/>
       <use xlink:href="#DejaVuSans-32" transform="translate(95.410156 0)"/>
      </g>
     </g>
    </g>
    <g id="ytick_4">
     <g id="line2d_6">
      <g>
       <use xlink:href="#m205ed77ffb" x="90" y="149.122246" style="stroke: #000000; stroke-width: 0.8"/>
      </g>
     </g>
     <g id="text_7">
      <!-- 0.4 -->
      <g transform="translate(67.096875 152.921465) scale(0.1 -0.1)">
       <defs>
        <path id="DejaVuSans-34" d="M 2419 4116 
L 825 1625 
L 2419 1625 
L 2419 4116 
z
M 2253 4666 
L 3047 4666 
L 3047 1625 
L 3713 1625 
L 3713 1100 
L 3047 1100 
L 3047 0 
L 2419 0 
L 2419 1100 
L 313 1100 
L 313 1709 
L 2253 4666 
z
" transform="scale(0.015625)"/>
       </defs>
       <use xlink:href="#DejaVuSans-30"/>
       <use xlink:href="#DejaVuSans-2e" transform="translate(63.623047 0)"/>
       <use xlink:href="#DejaVuSans-34" transform="translate(95.410156 0)"/>
      </g>
     </g>
    </g>
    <g id="ytick_5">
     <g id="line2d_7">
      <g>
       <use xlink:href="#m205ed77ffb" x="90" y="114.294249" style="stroke: #000000; stroke-width: 0.8"/>
      </g>
     </g>
     <g id="text_8">
      <!-- 0.6 -->
      <g transform="translate(67.096875 118.093468) scale(0.1 -0.1)">
       <defs>
        <path id="DejaVuSans-36" d="M 2113 2584 
Q 1688 2584 1439 2293 
Q 1191 2003 1191 1497 
Q 1191 994 1439 701 
Q 1688 409 2113 409 
Q 2538 409 2786 701 
Q 3034 994 3034 1497 
Q 3034 2003 2786 2293 
Q 2538 2584 2113 2584 
z
M 3366 4563 
L 3366 3988 
Q 3128 4100 2886 4159 
Q 2644 4219 2406 4219 
Q 1781 4219 1451 3797 
Q 1122 3375 1075 2522 
Q 1259 2794 1537 2939 
Q 1816 3084 2150 3084 
Q 2853 3084 3261 2657 
Q 3669 2231 3669 1497 
Q 3669 778 3244 343 
Q 2819 -91 2113 -91 
Q 1303 -91 875 529 
Q 447 1150 447 2328 
Q 447 3434 972 4092 
Q 1497 4750 2381 4750 
Q 2619 4750 2861 4703 
Q 3103 4656 3366 4563 
z
" transform="scale(0.015625)"/>
       </defs>
       <use xlink:href="#DejaVuSans-30"/>
       <use xlink:href="#DejaVuSans-2e" transform="translate(63.623047 0)"/>
       <use xlink:href="#DejaVuSans-36" transform="translate(95.410156 0)"/>
      </g>
     </g>
    </g>
    <g id="ytick_6">
     <g id="line2d_8">
      <g>
       <use xlink:href="#m205ed77ffb" x="90" y="79.466252" style="stroke: #000000; stroke-width: 0.8"/>
      </g>
     </g>
     <g id="text_9">
      <!-- 0.8 -->
      <g transform="translate(67.096875 83.265471) scale(0.1 -0.1)">
       <defs>
        <path id="DejaVuSans-38" d="M 2034 2216 
Q 1584 2216 1326 1975 
Q 1069 1734 1069 1313 
Q 1069 891 1326 650 
Q 1584 409 2034 409 
Q 2484 409 2743 651 
Q 3003 894 3003 1313 
Q 3003 1734 2745 1975 
Q 2488 2216 2034 2216 
z
M 1403 2484 
Q 997 2584 770 2862 
Q 544 3141 544 3541 
Q 544 4100 942 4425 
Q 1341 4750 2034 4750 
Q 2731 4750 3128 4425 
Q 3525 4100 3525 3541 
Q 3525 3141 3298 2862 
Q 3072 2584 2669 2484 
Q 3125 2378 3379 2068 
Q 3634 1759 3634 1313 
Q 3634 634 3220 271 
Q 2806 -91 2034 -91 
Q 1263 -91 848 271 
Q 434 634 434 1313 
Q 434 1759 690 2068 
Q 947 2378 1403 2484 
z
M 1172 3481 
Q 1172 3119 1398 2916 
Q 1625 2713 2034 2713 
Q 2441 2713 2670 2916 
Q 2900 3119 2900 3481 
Q 2900 3844 2670 4047 
Q 2441 4250 2034 4250 
Q 1625 4250 1398 4047 
Q 1172 3844 1172 3481 
z
" transform="scale(0.015625)"/>
       </defs>
       <use xlink:href="#DejaVuSans-30"/>
       <use xlink:href="#DejaVuSans-2e" transform="translate(63.623047 0)"/>
       <use xlink:href="#DejaVuSans-38" transform="translate(95.410156 0)"/>
      </g>
     </g>
    </g>
    <g id="ytick_7">
     <g id="line2d_9">
      <g>
       <use xlink:href="#m205ed77ffb" x="90" y="44.638255" style="stroke: #000000; stroke-width: 0.8"/>
      </g>
     </g>
     <g id="text_10">
      <!-- 1.0 -->
      <g transform="translate(67.096875 48.437474) scale(0.1 -0.1)">
       <defs>
        <path id="DejaVuSans-31" d="M 794 531 
L 1825 531 
L 1825 4091 
L 703 3866 
L 703 4441 
L 1819 4666 
L 2450 4666 
L 2450 531 
L 3481 531 
L 3481 0 
L 794 0 
L 794 531 
z
" transform="scale(0.015625)"/>
       </defs>
       <use xlink:href="#DejaVuSans-31"/>
       <use xlink:href="#DejaVuSans-2e" transform="translate(63.623047 0)"/>
       <use xlink:href="#DejaVuSans-30" transform="translate(95.410156 0)"/>
      </g>
     </g>
    </g>
    <g id="text_11">
     <!-- $\psi(x)$ -->
     <g transform="translate(52.617187 155.64) rotate(-90) scale(0.1 -0.1)">
      <defs>
       <path id="DejaVuSans-Oblique-3c8" d="M 1591 -78 
Q 891 38 616 341 
Q 278 713 425 1472 
L 819 3500 
L 1400 3500 
L 1009 1494 
Q 900 922 1119 684 
Q 1313 478 1691 434 
L 2284 3500 
L 2856 3500 
L 2263 438 
Q 2681 481 2928 688 
Q 3247 950 3353 1497 
L 3741 3500 
L 4322 3500 
L 3928 1475 
Q 3775 688 3300 344 
Q 2872 34 2163 -75 
L 1919 -1331 
L 1347 -1331 
L 1591 -78 
z
" transform="scale(0.015625)"/>
       <path id="DejaVuSans-28" d="M 1984 4856 
Q 1566 4138 1362 3434 
Q 1159 2731 1159 2009 
Q 1159 1288 1364 580 
Q 1569 -128 1984 -844 
L 1484 -844 
Q 1016 -109 783 600 
Q 550 1309 550 2009 
Q 550 2706 781 3412 
Q 1013 4119 1484 4856 
L 1984 4856 
z
" transform="scale(0.015625)"/>
       <path id="DejaVuSans-29" d="M 513 4856 
L 1013 4856 
Q 1481 4119 1714 3412 
Q 1947 2706 1947 2009 
Q 1947 1309 1714 600 
Q 1481 -109 1013 -844 
L 513 -844 
Q 928 -128 1133 580 
Q 1338 1288 1338 2009 
Q 1338 2731 1133 3434 
Q 928 4138 513 4856 
z
" transform="scale(0.015625)"/>
      </defs>
      <use xlink:href="#DejaVuSans-Oblique-3c8" transform="translate(0 0.125)"/>
      <use xlink:href="#DejaVuSans-28" transform="translate(65.966797 0.125)"/>
      <use xlink:href="#DejaVuSans-Oblique-78" transform="translate(104.980469 0.125)"/>
      <use xlink:href="#DejaVuSans-29" transform="translate(164.160156 0.125)"/>
     </g>
    </g>
   </g>
   <g id="line2d_10">
    <path d="M 90 169.975963 
L 648 169.975963 
L 648 169.975963 
" clip-path="url(#pf2ab30b8e4)" style="fill: none; stroke: #1f77b4; stroke-opacity: 0.5; stroke-width: 1.5; stroke-linecap: square"/>
   </g>
   <g id="line2d_11">
    <path d="M 90 131.843945 
L 94.468468 125.401696 
L 98.378378 120.132578 
L 102.288288 115.24966 
L 105.63964 111.400451 
L 108.990991 107.884746 
L 112.342342 104.722562 
L 115.135135 102.370512 
L 117.927928 100.285803 
L 120.720721 98.476681 
L 123.513514 96.950298 
L 126.306306 95.712692 
L 129.099099 94.768756 
L 131.333333 94.227597 
L 133.567568 93.878168 
L 135.801802 93.721354 
L 138.036036 93.757551 
L 140.27027 93.986669 
L 142.504505 94.408126 
L 144.738739 95.020856 
L 146.972973 95.823309 
L 149.765766 97.090032 
L 152.558559 98.644979 
L 155.351351 100.482 
L 158.144144 102.593832 
L 160.936937 104.972122 
L 163.72973 107.607466 
L 167.081081 111.094449 
L 170.432432 114.916677 
L 173.783784 119.05239 
L 177.693694 124.242091 
L 181.603604 129.786149 
L 186.072072 136.500905 
L 191.099099 144.456344 
L 197.243243 154.612759 
L 206.738739 170.815353 
L 217.351351 188.844477 
L 223.495495 198.85601 
L 228.522523 206.644966 
L 232.990991 213.17733 
L 236.900901 218.536729 
L 240.810811 223.519866 
L 244.162162 227.462301 
L 247.513514 231.077432 
L 250.864865 234.344678 
L 253.657658 236.788153 
L 256.45045 238.967424 
L 259.243243 240.873872 
L 262.036036 242.499958 
L 264.828829 243.839251 
L 267.621622 244.886457 
L 269.855856 245.511095 
L 272.09009 245.944543 
L 274.324324 246.185704 
L 276.558559 246.233966 
L 278.792793 246.089209 
L 281.027027 245.751798 
L 283.261261 245.222587 
L 285.495495 244.502916 
L 288.288288 243.338313 
L 291.081081 241.883603 
L 293.873874 240.144538 
L 296.666667 238.127996 
L 299.459459 235.84195 
L 302.252252 233.29544 
L 305.603604 229.910065 
L 308.954955 226.183451 
L 312.306306 222.136816 
L 316.216216 217.042102 
L 320.126126 211.582708 
L 324.594595 204.951233 
L 329.621622 197.071305 
L 335.765766 186.979709 
L 344.144144 172.733411 
L 356.990991 150.875169 
L 363.135135 140.874091 
L 368.162162 133.096854 
L 372.630631 126.57717 
L 376.540541 121.230511 
L 380.45045 116.261544 
L 383.801802 112.332312 
L 387.153153 108.731278 
L 390.504505 105.478945 
L 393.297297 103.048459 
L 396.09009 100.882634 
L 398.882883 98.990034 
L 401.675676 97.378144 
L 404.468468 96.053339 
L 407.261261 95.020856 
L 409.495495 94.408126 
L 411.72973 93.986669 
L 413.963964 93.757551 
L 416.198198 93.721354 
L 418.432432 93.878168 
L 420.666667 94.227597 
L 422.900901 94.768756 
L 425.135135 95.500275 
L 427.927928 96.679502 
L 430.720721 98.148576 
L 433.513514 99.901687 
L 436.306306 101.931903 
L 439.099099 104.231196 
L 441.891892 106.790473 
L 445.243243 110.190465 
L 448.594595 113.930849 
L 451.945946 117.990331 
L 455.855856 123.098767 
L 459.765766 128.570419 
L 464.234234 135.213989 
L 469.261261 143.104939 
L 475.405405 153.206095 
L 484.342342 168.417174 
L 496.630631 189.30885 
L 502.774775 199.299374 
L 507.801802 207.064815 
L 512.27027 213.571753 
L 516.18018 218.90562 
L 520.09009 223.860368 
L 523.441441 227.776359 
L 526.792793 231.36326 
L 530.144144 234.600647 
L 532.936937 237.01812 
L 535.72973 239.170479 
L 538.522523 241.049212 
L 541.315315 242.646889 
L 544.108108 243.957193 
L 546.900901 244.974943 
L 549.135135 245.575759 
L 551.369369 245.985221 
L 553.603604 246.202293 
L 555.837838 246.226425 
L 558.072072 246.057556 
L 560.306306 245.696113 
L 562.540541 245.143011 
L 564.774775 244.399651 
L 567.567568 243.205811 
L 570.36036 241.722388 
L 573.153153 239.955248 
L 575.945946 237.911378 
L 578.738739 235.598861 
L 581.531532 233.026842 
L 584.882883 229.612268 
L 588.234234 225.858149 
L 591.585586 221.785861 
L 595.495495 216.663754 
L 599.405405 211.179898 
L 603.873874 204.524299 
L 608.900901 196.622405 
L 615.045045 186.511789 
L 623.981982 171.294965 
L 636.27027 150.411177 
L 642.414414 140.431304 
L 647.441441 132.677737 
L 648 131.843945 
L 648 131.843945 
" clip-path="url(#pf2ab30b8e4)" style="fill: none; stroke: #ff7f0e; stroke-opacity: 0.5; stroke-width: 1.5; stroke-linecap: square"/>
   </g>
   <g id="line2d_12">
    <path d="M 90 150.032727 
L 105.081081 106.379541 
L 108.990991 96.035961 
L 112.342342 87.836548 
L 115.135135 81.575538 
L 117.927928 75.910475 
L 120.162162 71.851301 
L 122.396396 68.245077 
L 124.630631 65.118508 
L 126.306306 63.102473 
L 127.981982 61.377851 
L 129.657658 59.951889 
L 131.333333 58.830594 
L 133.009009 58.018693 
L 134.684685 57.519612 
L 136.36036 57.335459 
L 138.036036 57.467012 
L 139.711712 57.913716 
L 141.387387 58.673683 
L 143.063063 59.743706 
L 144.738739 61.119272 
L 146.414414 62.794588 
L 148.09009 64.76261 
L 149.765766 67.015078 
L 152 70.44438 
L 154.234234 74.337037 
L 156.468468 78.664304 
L 159.261261 84.635856 
L 162.054054 91.16854 
L 165.405405 99.644171 
L 169.315315 110.236758 
L 174.342342 124.617974 
L 188.306306 165.119411 
L 192.216216 175.621435 
L 195.567568 184.052864 
L 198.918919 191.85438 
L 201.711712 197.815271 
L 204.504505 203.244056 
L 207.297297 208.111624 
L 209.531532 211.58779 
L 211.765766 214.685642 
L 214 217.402803 
L 216.234234 219.740567 
L 218.468468 221.703812 
L 220.702703 223.300879 
L 222.378378 224.265262 
L 224.054054 225.036234 
L 225.72973 225.620805 
L 227.405405 226.026868 
L 229.63964 226.305773 
L 231.873874 226.305605 
L 234.108108 226.051156 
L 236.342342 225.56899 
L 238.576577 224.887114 
L 241.369369 223.798353 
L 244.720721 222.222361 
L 249.189189 219.831408 
L 258.684685 214.650793 
L 262.036036 213.083344 
L 265.387387 211.771963 
L 268.18018 210.916029 
L 270.972973 210.302732 
L 273.765766 209.949955 
L 276.558559 209.867914 
L 279.351351 210.058975 
L 282.144144 210.517621 
L 284.936937 211.230538 
L 287.72973 212.17686 
L 291.081081 213.580558 
L 294.990991 215.509284 
L 300.576577 218.578974 
L 307.279279 222.222361 
L 310.630631 223.798353 
L 313.423423 224.887114 
L 316.216216 225.70937 
L 318.45045 226.137182 
L 320.684685 226.330487 
L 322.918919 226.263134 
L 325.153153 225.910827 
L 326.828829 225.44619 
L 328.504505 224.800319 
L 330.18018 223.965611 
L 331.855856 222.935359 
L 333.531532 221.703812 
L 335.765766 219.740567 
L 338 217.402803 
L 340.234234 214.685642 
L 342.468468 211.58779 
L 344.702703 208.111624 
L 346.936937 204.263241 
L 349.72973 198.944656 
L 352.522523 193.087432 
L 355.315315 186.727721 
L 358.666667 178.496203 
L 362.576577 168.183896 
L 367.045045 155.676479 
L 373.747748 136.102236 
L 381.567568 113.37277 
L 386.036036 101.115523 
L 389.387387 92.536006 
L 392.18018 85.899788 
L 394.972973 79.810366 
L 397.207207 75.379301 
L 399.441441 71.375173 
L 401.675676 67.827514 
L 403.90991 64.76261 
L 405.585586 62.794588 
L 407.261261 61.119272 
L 408.936937 59.743706 
L 410.612613 58.673683 
L 412.288288 57.913716 
L 413.963964 57.467012 
L 415.63964 57.335459 
L 417.315315 57.519612 
L 418.990991 58.018693 
L 420.666667 58.830594 
L 422.342342 59.951889 
L 424.018018 61.377851 
L 425.693694 63.102473 
L 427.369369 65.118508 
L 429.045045 67.417499 
L 431.279279 70.906181 
L 433.513514 74.854801 
L 435.747748 79.234219 
L 438.540541 85.26505 
L 441.333333 91.849873 
L 444.684685 100.377923 
L 448.594595 111.016829 
L 453.621622 125.433142 
L 467.027027 164.346142 
L 470.936937 174.893328 
L 474.288288 183.373063 
L 477.63964 191.230409 
L 480.432432 197.24257 
L 483.225225 202.726022 
L 486.018018 207.650766 
L 488.252252 211.173869 
L 490.486486 214.319216 
L 492.720721 217.083968 
L 494.954955 219.468962 
L 497.189189 221.478635 
L 499.423423 223.120903 
L 501.657658 224.407011 
L 503.333333 225.146404 
L 505.009009 225.700654 
L 506.684685 226.077791 
L 508.918919 226.320524 
L 511.153153 226.287176 
L 513.387387 226.002777 
L 515.621622 225.494089 
L 518.414414 224.585837 
L 521.207207 223.42846 
L 524.558559 221.793523 
L 529.585586 219.050095 
L 536.846847 215.074782 
L 540.756757 213.205062 
L 544.108108 211.869991 
L 546.900901 210.991063 
L 549.693694 210.352574 
L 552.486486 209.973157 
L 555.279279 209.863805 
L 558.072072 210.027675 
L 560.864865 210.460034 
L 563.657658 211.148341 
L 566.45045 212.07247 
L 569.801802 213.453707 
L 573.153153 215.074782 
L 578.18018 217.794669 
L 586 222.080707 
L 589.351351 223.677058 
L 592.144144 224.789278 
L 594.936937 225.640768 
L 597.171171 226.095976 
L 599.405405 226.320059 
L 601.63964 226.286658 
L 603.873874 225.971228 
L 605.54955 225.535997 
L 607.225225 224.920884 
L 608.900901 224.118139 
L 610.576577 223.120903 
L 612.252252 221.923263 
L 614.486486 220.006316 
L 616.720721 217.715706 
L 618.954955 215.046115 
L 621.189189 211.995795 
L 623.423423 208.566661 
L 625.657658 204.764344 
L 628.45045 199.501275 
L 631.243243 193.696431 
L 634.036036 187.385096 
L 637.387387 179.205182 
L 640.738739 170.450325 
L 644.648649 159.651899 
L 648 150.032727 
L 648 150.032727 
" clip-path="url(#pf2ab30b8e4)" style="fill: none; stroke: #2ca02c; stroke-opacity: 0.5; stroke-width: 1.5; stroke-linecap: square"/>
   </g>
   <g id="line2d_13">
    <path d="M 90 160.627186 
L 93.351351 150.541062 
L 97.261261 138.049238 
L 103.963964 115.678628 
L 109.54955 97.243613 
L 113.459459 85.11513 
L 116.252252 77.099991 
L 119.045045 69.783289 
L 121.279279 64.520427 
L 123.513514 59.848671 
L 125.189189 56.765881 
L 126.864865 54.066923 
L 128.540541 51.769831 
L 130.216216 49.89004 
L 131.891892 48.440233 
L 133.009009 47.717543 
L 134.126126 47.192563 
L 135.243243 46.866877 
L 136.36036 46.741471 
L 137.477477 46.816724 
L 138.594595 47.092409 
L 139.711712 47.567691 
L 140.828829 48.241134 
L 141.945946 49.110706 
L 143.621622 50.776914 
L 145.297297 52.867116 
L 146.972973 55.367237 
L 148.648649 58.260522 
L 150.324324 61.527697 
L 152.558559 66.427871 
L 154.792793 71.897025 
L 157.585586 79.437377 
L 160.378378 87.635252 
L 163.72973 98.14138 
L 168.756757 114.741236 
L 177.693694 144.376812 
L 181.603604 156.506191 
L 184.954955 166.178663 
L 187.747748 173.624242 
L 190.540541 180.448474 
L 193.333333 186.612029 
L 195.567568 191.052355 
L 197.801802 195.053207 
L 200.036036 198.618641 
L 202.27027 201.759043 
L 204.504505 204.490542 
L 206.738739 206.834341 
L 208.972973 208.815984 
L 211.207207 210.464563 
L 213.441441 211.811892 
L 215.675676 212.891671 
L 217.90991 213.738652 
L 220.702703 214.523267 
L 223.495495 215.065731 
L 226.846847 215.486116 
L 231.873874 215.847111 
L 242.486486 216.529646 
L 248.072072 217.156028 
L 254.774775 218.154548 
L 265.387387 219.757859 
L 270.414414 220.25402 
L 274.882883 220.44864 
L 278.792793 220.405494 
L 283.261261 220.118228 
L 288.288288 219.540082 
L 295.54955 218.425361 
L 304.486486 217.083433 
L 310.072072 216.479532 
L 316.216216 216.055397 
L 325.711712 215.429555 
L 329.063063 214.973496 
L 331.855856 214.387822 
L 334.648649 213.546815 
L 336.882883 212.644919 
L 339.117117 211.501483 
L 341.351351 210.081942 
L 343.585586 208.352987 
L 345.81982 206.283408 
L 348.054054 203.844922 
L 350.288288 201.013 
L 352.522523 197.767638 
L 354.756757 194.094085 
L 356.990991 189.983487 
L 359.225225 185.433446 
L 361.459459 180.448474 
L 364.252252 173.624242 
L 367.045045 166.178663 
L 370.396396 156.506191 
L 373.747748 146.156325 
L 378.216216 131.597589 
L 389.945946 92.811069 
L 393.297297 82.645385 
L 396.09009 74.825528 
L 398.324324 69.095129 
L 400.558559 63.902949 
L 402.792793 59.309058 
L 404.468468 56.288882 
L 406.144144 53.655717 
L 407.81982 51.427176 
L 409.495495 49.618244 
L 411.171171 48.241134 
L 412.288288 47.567691 
L 413.405405 47.092409 
L 414.522523 46.816724 
L 415.63964 46.741471 
L 416.756757 46.866877 
L 417.873874 47.192563 
L 418.990991 47.717543 
L 420.108108 48.440232 
L 421.225225 49.35845 
L 422.900901 51.096183 
L 424.576577 53.255757 
L 426.252252 55.822638 
L 427.927928 58.779642 
L 430.162162 63.294826 
L 432.396396 68.415385 
L 434.630631 74.081983 
L 437.423423 81.833997 
L 440.774775 91.936849 
L 444.684685 104.512908 
L 459.765766 153.976233 
L 463.117117 163.831966 
L 465.90991 171.45354 
L 468.702703 178.46914 
L 471.495495 184.83394 
L 473.72973 189.438739 
L 475.963964 193.604274 
L 478.198198 197.332101 
L 480.432432 200.630295 
L 482.666667 203.512905 
L 484.900901 205.999314 
L 487.135135 208.113529 
L 489.369369 209.883407 
L 491.603604 211.339839 
L 493.837838 212.515915 
L 496.072072 213.44609 
L 498.306306 214.165357 
L 501.099099 214.820694 
L 504.45045 215.335582 
L 508.36036 215.692671 
L 525.117117 216.911236 
L 531.261261 217.758167 
L 546.342342 219.981531 
L 550.810811 220.341884 
L 554.720721 220.456378 
L 558.630631 220.370293 
L 563.099099 220.038656 
L 568.126126 219.423507 
L 576.504505 218.109738 
L 583.765766 217.047916 
L 589.351351 216.45531 
L 595.495495 216.040149 
L 604.432432 215.458407 
L 607.783784 215.020535 
L 610.576577 214.456787 
L 613.369369 213.644312 
L 615.603604 212.770148 
L 617.837838 211.658812 
L 620.072072 210.275639 
L 622.306306 208.587119 
L 624.540541 206.561732 
L 626.774775 204.170786 
L 629.009009 201.389237 
L 631.243243 198.196477 
L 633.477477 194.577058 
L 635.711712 190.521359 
L 637.945946 186.026148 
L 640.18018 181.09505 
L 642.972973 174.335418 
L 645.765766 166.949682 
L 648 160.627186 
L 648 160.627186 
" clip-path="url(#pf2ab30b8e4)" style="fill: none; stroke: #d62728; stroke-opacity: 0.5; stroke-width: 1.5; stroke-linecap: square"/>
   </g>
   <g id="line2d_14">
    <path d="M 90 161.452578 
L 93.351351 151.882385 
L 96.702703 141.610419 
L 101.171171 127.081449 
L 114.018018 84.470963 
L 117.369369 74.492802 
L 120.162162 66.958287 
L 122.396396 61.558387 
L 124.630631 56.799552 
L 126.306306 53.692868 
L 127.981982 51.011434 
L 129.657658 48.777737 
L 131.333333 47.010698 
L 132.45045 46.09954 
L 133.567568 45.406053 
L 134.684685 44.932892 
L 135.801802 44.681872 
L 136.918919 44.653958 
L 138.036036 44.849259 
L 139.153153 45.267022 
L 140.27027 45.905644 
L 141.387387 46.762678 
L 142.504505 47.83485 
L 144.18018 49.837349 
L 145.855856 52.297509 
L 147.531532 55.19459 
L 149.207207 58.504438 
L 151.441441 63.51218 
L 153.675676 69.133146 
L 156.468468 76.901324 
L 159.261261 85.340192 
L 163.171171 97.956194 
L 178.252252 147.68027 
L 181.603604 157.557882 
L 184.396396 165.206967 
L 187.189189 172.27462 
L 189.981982 178.732139 
L 192.774775 184.568293 
L 195.009009 188.792168 
L 197.243243 192.629021 
L 199.477477 196.091619 
L 201.711712 199.196428 
L 203.945946 201.962813 
L 206.18018 204.412273 
L 208.414414 206.56773 
L 210.648649 208.452892 
L 212.882883 210.091686 
L 215.675676 211.82971 
L 218.468468 213.264364 
L 221.261261 214.43774 
L 224.054054 215.388697 
L 227.405405 216.285554 
L 231.315315 217.061864 
L 235.783784 217.679104 
L 240.810811 218.128645 
L 246.954955 218.44851 
L 255.891892 218.663493 
L 270.972973 218.762195 
L 292.756757 218.702619 
L 303.927928 218.487968 
L 311.189189 218.128645 
L 316.216216 217.679104 
L 320.684685 217.061864 
L 324.594595 216.285554 
L 327.945946 215.388697 
L 330.738739 214.43774 
L 333.531532 213.264364 
L 336.324324 211.82971 
L 338.558559 210.465674 
L 340.792793 208.884755 
L 343.027027 207.063426 
L 345.261261 204.977783 
L 347.495495 202.604014 
L 349.72973 199.918943 
L 351.963964 196.900651 
L 354.198198 193.529171 
L 356.432432 189.787237 
L 358.666667 185.661081 
L 360.900901 181.141252 
L 363.693694 174.931843 
L 366.486486 168.10582 
L 369.279279 160.68467 
L 372.630631 151.051459 
L 375.981982 140.727018 
L 380.45045 126.150601 
L 392.738739 85.340192 
L 396.09009 75.28865 
L 398.882883 67.674618 
L 401.117117 62.199817 
L 403.351351 57.356914 
L 405.027027 54.181774 
L 406.702703 51.427812 
L 408.378378 49.118078 
L 410.054054 47.272108 
L 411.171171 46.307045 
L 412.288288 45.558859 
L 413.405405 45.030413 
L 414.522523 44.723734 
L 415.63964 44.64 
L 416.756757 44.779534 
L 417.873874 45.141798 
L 418.990991 45.725402 
L 420.108108 46.528108 
L 421.225225 47.546847 
L 422.900901 49.47131 
L 424.576577 51.856537 
L 426.252252 54.682387 
L 427.927928 57.925252 
L 430.162162 62.85113 
L 432.396396 68.399623 
L 434.630631 74.492802 
L 437.423423 82.748197 
L 440.774775 93.367624 
L 445.801802 110.139693 
L 453.621622 136.255271 
L 457.531532 148.530036 
L 460.882883 158.347748 
L 463.675676 165.940515 
L 466.468468 172.948144 
L 469.261261 179.343761 
L 472.054054 185.117773 
L 474.288288 189.292718 
L 476.522523 193.082008 
L 478.756757 196.498914 
L 480.990991 199.56031 
L 483.225225 202.285868 
L 485.459459 204.697302 
L 487.693694 206.817666 
L 489.927928 208.670725 
L 492.162162 210.280396 
L 494.954955 211.98611 
L 497.747748 213.392791 
L 500.540541 214.542234 
L 503.333333 215.472948 
L 506.684685 216.34985 
L 510.594595 217.108011 
L 515.063063 217.710027 
L 520.09009 218.147831 
L 526.792793 218.478534 
L 535.72973 218.674741 
L 551.927928 218.766018 
L 572.594595 218.694219 
L 583.207207 218.478534 
L 589.90991 218.147831 
L 594.936937 217.710027 
L 599.405405 217.108011 
L 603.315315 216.34985 
L 606.666667 215.472948 
L 609.459459 214.542234 
L 612.252252 213.392791 
L 615.045045 211.98611 
L 617.837838 210.280396 
L 620.072072 208.670725 
L 622.306306 206.817666 
L 624.540541 204.697302 
L 626.774775 202.285868 
L 629.009009 199.56031 
L 631.243243 196.498914 
L 633.477477 193.082008 
L 635.711712 189.292718 
L 637.945946 185.117773 
L 640.18018 180.548317 
L 642.972973 174.276772 
L 645.765766 167.389976 
L 648 161.452578 
L 648 161.452578 
" clip-path="url(#pf2ab30b8e4)" style="fill: none; stroke-dasharray: 1.5,2.475; stroke-dashoffset: 0; stroke: #000000; stroke-width: 1.5"/>
   </g>
   <g id="line2d_15">
    <path d="M 229.5 256.32 
L 229.5 34.56 
" clip-path="url(#pf2ab30b8e4)" style="fill: none; stroke: #808080; stroke-opacity: 0.7; stroke-width: 1.5; stroke-linecap: square"/>
   </g>
   <g id="line2d_16">
    <path d="M 508.5 256.32 
L 508.5 34.56 
" clip-path="url(#pf2ab30b8e4)" style="fill: none; stroke: #808080; stroke-opacity: 0.7; stroke-width: 1.5; stroke-linecap: square"/>
   </g>
   <g id="patch_3">
    <path d="M 90 256.32 
L 90 34.56 
" style="fill: none; stroke: #000000; stroke-width: 0.8; stroke-linejoin: miter; stroke-linecap: square"/>
   </g>
   <g id="patch_4">
    <path d="M 648 256.32 
L 648 34.56 
" style="fill: none; stroke: #000000; stroke-width: 0.8; stroke-linejoin: miter; stroke-linecap: square"/>
   </g>
   <g id="patch_5">
    <path d="M 90 256.32 
L 648 256.32 
" style="fill: none; stroke: #000000; stroke-width: 0.8; stroke-linejoin: miter; stroke-linecap: square"/>
   </g>
   <g id="patch_6">
    <path d="M 90 34.56 
L 648 34.56 
" style="fill: none; stroke: #000000; stroke-width: 0.8; stroke-linejoin: miter; stroke-linecap: square"/>
   </g>
   <g id="legend_1">
    <g id="patch_7">
     <path d="M 545.2 117.66 
L 641 117.66 
Q 643 117.66 643 115.66 
L 643 41.56 
Q 643 39.56 641 39.56 
L 545.2 39.56 
Q 543.2 39.56 543.2 41.56 
L 543.2 115.66 
Q 543.2 117.66 545.2 117.66 
z
" style="fill: #ffffff; opacity: 0.8; stroke: #cccccc; stroke-linejoin: miter"/>
    </g>
    <g id="line2d_17">
     <path d="M 547.2 47.76 
L 557.2 47.76 
L 567.2 47.76 
" style="fill: none; stroke: #1f77b4; stroke-opacity: 0.5; stroke-width: 1.5; stroke-linecap: square"/>
    </g>
    <g id="text_12">
     <!-- $\max(|n|)$ = 0 -->
     <g transform="translate(575.2 51.26) scale(0.1 -0.1)">
      <defs>
       <path id="DejaVuSans-6d" d="M 3328 2828 
Q 3544 3216 3844 3400 
Q 4144 3584 4550 3584 
Q 5097 3584 5394 3201 
Q 5691 2819 5691 2113 
L 5691 0 
L 5113 0 
L 5113 2094 
Q 5113 2597 4934 2840 
Q 4756 3084 4391 3084 
Q 3944 3084 3684 2787 
Q 3425 2491 3425 1978 
L 3425 0 
L 2847 0 
L 2847 2094 
Q 2847 2600 2669 2842 
Q 2491 3084 2119 3084 
Q 1678 3084 1418 2786 
Q 1159 2488 1159 1978 
L 1159 0 
L 581 0 
L 581 3500 
L 1159 3500 
L 1159 2956 
Q 1356 3278 1631 3431 
Q 1906 3584 2284 3584 
Q 2666 3584 2933 3390 
Q 3200 3197 3328 2828 
z
" transform="scale(0.015625)"/>
       <path id="DejaVuSans-61" d="M 2194 1759 
Q 1497 1759 1228 1600 
Q 959 1441 959 1056 
Q 959 750 1161 570 
Q 1363 391 1709 391 
Q 2188 391 2477 730 
Q 2766 1069 2766 1631 
L 2766 1759 
L 2194 1759 
z
M 3341 1997 
L 3341 0 
L 2766 0 
L 2766 531 
Q 2569 213 2275 61 
Q 1981 -91 1556 -91 
Q 1019 -91 701 211 
Q 384 513 384 1019 
Q 384 1609 779 1909 
Q 1175 2209 1959 2209 
L 2766 2209 
L 2766 2266 
Q 2766 2663 2505 2880 
Q 2244 3097 1772 3097 
Q 1472 3097 1187 3025 
Q 903 2953 641 2809 
L 641 3341 
Q 956 3463 1253 3523 
Q 1550 3584 1831 3584 
Q 2591 3584 2966 3190 
Q 3341 2797 3341 1997 
z
" transform="scale(0.015625)"/>
       <path id="DejaVuSans-78" d="M 3513 3500 
L 2247 1797 
L 3578 0 
L 2900 0 
L 1881 1375 
L 863 0 
L 184 0 
L 1544 1831 
L 300 3500 
L 978 3500 
L 1906 2253 
L 2834 3500 
L 3513 3500 
z
" transform="scale(0.015625)"/>
       <path id="DejaVuSans-7c" d="M 1344 4891 
L 1344 -1509 
L 813 -1509 
L 813 4891 
L 1344 4891 
z
" transform="scale(0.015625)"/>
       <path id="DejaVuSans-Oblique-6e" d="M 3566 2113 
L 3156 0 
L 2578 0 
L 2988 2091 
Q 3016 2238 3031 2350 
Q 3047 2463 3047 2528 
Q 3047 2791 2881 2937 
Q 2716 3084 2419 3084 
Q 1956 3084 1622 2776 
Q 1288 2469 1184 1941 
L 800 0 
L 225 0 
L 903 3500 
L 1478 3500 
L 1363 2950 
Q 1603 3253 1940 3418 
Q 2278 3584 2650 3584 
Q 3113 3584 3367 3334 
Q 3622 3084 3622 2631 
Q 3622 2519 3608 2391 
Q 3594 2263 3566 2113 
z
" transform="scale(0.015625)"/>
       <path id="DejaVuSans-20" transform="scale(0.015625)"/>
       <path id="DejaVuSans-3d" d="M 678 2906 
L 4684 2906 
L 4684 2381 
L 678 2381 
L 678 2906 
z
M 678 1631 
L 4684 1631 
L 4684 1100 
L 678 1100 
L 678 1631 
z
" transform="scale(0.015625)"/>
      </defs>
      <use xlink:href="#DejaVuSans-6d" transform="translate(0 0.578125)"/>
      <use xlink:href="#DejaVuSans-61" transform="translate(97.412109 0.578125)"/>
      <use xlink:href="#DejaVuSans-78" transform="translate(158.691406 0.578125)"/>
      <use xlink:href="#DejaVuSans-28" transform="translate(217.871094 0.578125)"/>
      <use xlink:href="#DejaVuSans-7c" transform="translate(256.884766 0.578125)"/>
      <use xlink:href="#DejaVuSans-Oblique-6e" transform="translate(290.576172 0.578125)"/>
      <use xlink:href="#DejaVuSans-7c" transform="translate(353.955078 0.578125)"/>
      <use xlink:href="#DejaVuSans-29" transform="translate(387.646484 0.578125)"/>
      <use xlink:href="#DejaVuSans-20" transform="translate(426.660156 0.578125)"/>
      <use xlink:href="#DejaVuSans-3d" transform="translate(458.447266 0.578125)"/>
      <use xlink:href="#DejaVuSans-20" transform="translate(542.236328 0.578125)"/>
      <use xlink:href="#DejaVuSans-30" transform="translate(574.023438 0.578125)"/>
     </g>
    </g>
    <g id="line2d_18">
     <path d="M 547.2 62.86 
L 557.2 62.86 
L 567.2 62.86 
" style="fill: none; stroke: #ff7f0e; stroke-opacity: 0.5; stroke-width: 1.5; stroke-linecap: square"/>
    </g>
    <g id="text_13">
     <!-- $\max(|n|)$ = 1 -->
     <g transform="translate(575.2 66.36) scale(0.1 -0.1)">
      <use xlink:href="#DejaVuSans-6d" transform="translate(0 0.578125)"/>
      <use xlink:href="#DejaVuSans-61" transform="translate(97.412109 0.578125)"/>
      <use xlink:href="#DejaVuSans-78" transform="translate(158.691406 0.578125)"/>
      <use xlink:href="#DejaVuSans-28" transform="translate(217.871094 0.578125)"/>
      <use xlink:href="#DejaVuSans-7c" transform="translate(256.884766 0.578125)"/>
      <use xlink:href="#DejaVuSans-Oblique-6e" transform="translate(290.576172 0.578125)"/>
      <use xlink:href="#DejaVuSans-7c" transform="translate(353.955078 0.578125)"/>
      <use xlink:href="#DejaVuSans-29" transform="translate(387.646484 0.578125)"/>
      <use xlink:href="#DejaVuSans-20" transform="translate(426.660156 0.578125)"/>
      <use xlink:href="#DejaVuSans-3d" transform="translate(458.447266 0.578125)"/>
      <use xlink:href="#DejaVuSans-20" transform="translate(542.236328 0.578125)"/>
      <use xlink:href="#DejaVuSans-31" transform="translate(574.023438 0.578125)"/>
     </g>
    </g>
    <g id="line2d_19">
     <path d="M 547.2 77.96 
L 557.2 77.96 
L 567.2 77.96 
" style="fill: none; stroke: #2ca02c; stroke-opacity: 0.5; stroke-width: 1.5; stroke-linecap: square"/>
    </g>
    <g id="text_14">
     <!-- $\max(|n|)$ = 2 -->
     <g transform="translate(575.2 81.46) scale(0.1 -0.1)">
      <use xlink:href="#DejaVuSans-6d" transform="translate(0 0.578125)"/>
      <use xlink:href="#DejaVuSans-61" transform="translate(97.412109 0.578125)"/>
      <use xlink:href="#DejaVuSans-78" transform="translate(158.691406 0.578125)"/>
      <use xlink:href="#DejaVuSans-28" transform="translate(217.871094 0.578125)"/>
      <use xlink:href="#DejaVuSans-7c" transform="translate(256.884766 0.578125)"/>
      <use xlink:href="#DejaVuSans-Oblique-6e" transform="translate(290.576172 0.578125)"/>
      <use xlink:href="#DejaVuSans-7c" transform="translate(353.955078 0.578125)"/>
      <use xlink:href="#DejaVuSans-29" transform="translate(387.646484 0.578125)"/>
      <use xlink:href="#DejaVuSans-20" transform="translate(426.660156 0.578125)"/>
      <use xlink:href="#DejaVuSans-3d" transform="translate(458.447266 0.578125)"/>
      <use xlink:href="#DejaVuSans-20" transform="translate(542.236328 0.578125)"/>
      <use xlink:href="#DejaVuSans-32" transform="translate(574.023438 0.578125)"/>
     </g>
    </g>
    <g id="line2d_20">
     <path d="M 547.2 93.06 
L 557.2 93.06 
L 567.2 93.06 
" style="fill: none; stroke: #d62728; stroke-opacity: 0.5; stroke-width: 1.5; stroke-linecap: square"/>
    </g>
    <g id="text_15">
     <!-- $\max(|n|)$ = 3 -->
     <g transform="translate(575.2 96.56) scale(0.1 -0.1)">
      <defs>
       <path id="DejaVuSans-33" d="M 2597 2516 
Q 3050 2419 3304 2112 
Q 3559 1806 3559 1356 
Q 3559 666 3084 287 
Q 2609 -91 1734 -91 
Q 1441 -91 1130 -33 
Q 819 25 488 141 
L 488 750 
Q 750 597 1062 519 
Q 1375 441 1716 441 
Q 2309 441 2620 675 
Q 2931 909 2931 1356 
Q 2931 1769 2642 2001 
Q 2353 2234 1838 2234 
L 1294 2234 
L 1294 2753 
L 1863 2753 
Q 2328 2753 2575 2939 
Q 2822 3125 2822 3475 
Q 2822 3834 2567 4026 
Q 2313 4219 1838 4219 
Q 1578 4219 1281 4162 
Q 984 4106 628 3988 
L 628 4550 
Q 988 4650 1302 4700 
Q 1616 4750 1894 4750 
Q 2613 4750 3031 4423 
Q 3450 4097 3450 3541 
Q 3450 3153 3228 2886 
Q 3006 2619 2597 2516 
z
" transform="scale(0.015625)"/>
      </defs>
      <use xlink:href="#DejaVuSans-6d" transform="translate(0 0.578125)"/>
      <use xlink:href="#DejaVuSans-61" transform="translate(97.412109 0.578125)"/>
      <use xlink:href="#DejaVuSans-78" transform="translate(158.691406 0.578125)"/>
      <use xlink:href="#DejaVuSans-28" transform="translate(217.871094 0.578125)"/>
      <use xlink:href="#DejaVuSans-7c" transform="translate(256.884766 0.578125)"/>
      <use xlink:href="#DejaVuSans-Oblique-6e" transform="translate(290.576172 0.578125)"/>
      <use xlink:href="#DejaVuSans-7c" transform="translate(353.955078 0.578125)"/>
      <use xlink:href="#DejaVuSans-29" transform="translate(387.646484 0.578125)"/>
      <use xlink:href="#DejaVuSans-20" transform="translate(426.660156 0.578125)"/>
      <use xlink:href="#DejaVuSans-3d" transform="translate(458.447266 0.578125)"/>
      <use xlink:href="#DejaVuSans-20" transform="translate(542.236328 0.578125)"/>
      <use xlink:href="#DejaVuSans-33" transform="translate(574.023438 0.578125)"/>
     </g>
    </g>
    <g id="line2d_21">
     <path d="M 547.2 108.06 
L 557.2 108.06 
L 567.2 108.06 
" style="fill: none; stroke-dasharray: 1.5,2.475; stroke-dashoffset: 0; stroke: #000000; stroke-width: 1.5"/>
    </g>
    <g id="text_16">
     <!-- $\psi(x)$ -->
     <g transform="translate(575.2 111.56) scale(0.1 -0.1)">
      <use xlink:href="#DejaVuSans-Oblique-3c8" transform="translate(0 0.125)"/>
      <use xlink:href="#DejaVuSans-28" transform="translate(65.966797 0.125)"/>
      <use xlink:href="#DejaVuSans-Oblique-78" transform="translate(104.980469 0.125)"/>
      <use xlink:href="#DejaVuSans-29" transform="translate(164.160156 0.125)"/>
     </g>
    </g>
   </g>
  </g>
 </g>
 <defs>
  <clipPath id="pf2ab30b8e4">
   <rect x="90" y="34.56" width="558" height="221.76"/>
  </clipPath>
 </defs>
</svg>
