<?xml version="1.0" encoding="utf-8" standalone="no"?>
<!DOCTYPE svg PUBLIC "-//W3C//DTD SVG 1.1//EN"
  "http://www.w3.org/Graphics/SVG/1.1/DTD/svg11.dtd">
<svg xmlns:xlink="http://www.w3.org/1999/xlink" width="720pt" height="288pt" viewBox="0 0 720 288" xmlns="http://www.w3.org/2000/svg" version="1.1">
 <metadata>
  <rdf:RDF xmlns:dc="http://purl.org/dc/elements/1.1/" xmlns:cc="http://creativecommons.org/ns#" xmlns:rdf="http://www.w3.org/1999/02/22-rdf-syntax-ns#">
   <cc:Work>
    <dc:type rdf:resource="http://purl.org/dc/dcmitype/StillImage"/>
    <dc:date>2025-03-17T12:13:46.784611</dc:date>
    <dc:format>image/svg+xml</dc:format>
    <dc:creator>
     <cc:Agent>
      <dc:title>Matplotlib v3.10.1, https://matplotlib.org/</dc:title>
     </cc:Agent>
    </dc:creator>
   </cc:Work>
  </rdf:RDF>
 </metadata>
 <defs>
  <style type="text/css">*{stroke-linejoin: round; stroke-linecap: butt}</style>
 </defs>
 <g id="figure_1">
  <g id="patch_1">
   <path d="M 0 288 
L 720 288 
L 720 0 
L 0 0 
z
" style="fill: #ffffff"/>
  </g>
  <g id="axes_1">
   <g id="patch_2">
    <path d="M 90 256.32 
L 648 256.32 
L 648 34.56 
L 90 34.56 
z
" style="fill: #ffffff"/>
   </g>
   <g id="matplotlib.axis_1">
    <g id="xtick_1">
     <g id="line2d_1">
      <defs>
       <path id="md56b82eeec" d="M 0 0 
L 0 3.5 
" style="stroke: #000000; stroke-width: 0.8"/>
      </defs>
      <g>
       <use xlink:href="#md56b82eeec" x="229.5" y="256.32" style="stroke: #000000; stroke-width: 0.8"/>
      </g>
     </g>
     <g id="text_1">
      <!-- $-\ell$ -->
      <g transform="translate(223.2 270.918437) scale(0.1 -0.1)">
       <defs>
        <path id="DejaVuSans-2212" d="M 678 2272 
L 4684 2272 
L 4684 1741 
L 678 1741 
L 678 2272 
z
" transform="scale(0.015625)"/>
        <path id="DejaVuSans-Oblique-2113" d="M 950 838 
Q 1078 213 1350 213 
Q 1531 213 1766 572 
L 2181 572 
Q 1994 253 1775 88 
Q 1538 -91 1319 -91 
Q 831 -91 634 344 
L 400 0 
L -88 0 
Q 250 459 500 888 
Q 469 1131 469 1397 
Q 469 1872 566 2347 
Q 931 4131 1256 4497 
Q 1481 4750 1866 4750 
Q 2256 4750 2256 4209 
Q 2253 3966 2197 3675 
Q 1972 2484 950 838 
z
M 947 1656 
Q 1531 2744 1709 3613 
Q 1803 4072 1803 4191 
Q 1803 4406 1725 4406 
Q 1384 4134 1081 2516 
Q 997 2063 947 1656 
z
" transform="scale(0.015625)"/>
       </defs>
       <use xlink:href="#DejaVuSans-2212" transform="translate(0 0.78125)"/>
       <use xlink:href="#DejaVuSans-Oblique-2113" transform="translate(83.789062 0.78125)"/>
      </g>
     </g>
    </g>
    <g id="xtick_2">
     <g id="line2d_2">
      <g>
       <use xlink:href="#md56b82eeec" x="508.5" y="256.32" style="stroke: #000000; stroke-width: 0.8"/>
      </g>
     </g>
     <g id="text_2">
      <!-- $\ell$ -->
      <g transform="translate(506.4 270.918437) scale(0.1 -0.1)">
       <use xlink:href="#DejaVuSans-Oblique-2113" transform="translate(0 0.78125)"/>
      </g>
     </g>
    </g>
    <g id="text_3">
     <!-- $x$ -->
     <g transform="translate(366 284.596563) scale(0.1 -0.1)">
      <defs>
       <path id="DejaVuSans-Oblique-78" d="M 3841 3500 
L 2234 1784 
L 3219 0 
L 2559 0 
L 1819 1388 
L 531 0 
L -166 0 
L 1556 1844 
L 641 3500 
L 1300 3500 
L 1972 2234 
L 3144 3500 
L 3841 3500 
z
" transform="scale(0.015625)"/>
      </defs>
      <use xlink:href="#DejaVuSans-Oblique-78" transform="translate(0 0.3125)"/>
     </g>
    </g>
   </g>
   <g id="matplotlib.axis_2">
    <g id="ytick_1">
     <g id="line2d_3">
      <defs>
       <path id="m3fa0dc0b59" d="M 0 0 
L -3.5 0 
" style="stroke: #000000; stroke-width: 0.8"/>
      </defs>
      <g>
       <use xlink:href="#m3fa0dc0b59" x="90" y="246.249153" style="stroke: #000000; stroke-width: 0.8"/>
      </g>
     </g>
     <g id="text_4">
      <!-- 0.0 -->
      <g transform="translate(67.096875 250.048372) scale(0.1 -0.1)">
       <defs>
        <path id="DejaVuSans-30" d="M 2034 4250 
Q 1547 4250 1301 3770 
Q 1056 3291 1056 2328 
Q 1056 1369 1301 889 
Q 1547 409 2034 409 
Q 2525 409 2770 889 
Q 3016 1369 3016 2328 
Q 3016 3291 2770 3770 
Q 2525 4250 2034 4250 
z
M 2034 4750 
Q 2819 4750 3233 4129 
Q 3647 3509 3647 2328 
Q 3647 1150 3233 529 
Q 2819 -91 2034 -91 
Q 1250 -91 836 529 
Q 422 1150 422 2328 
Q 422 3509 836 4129 
Q 1250 4750 2034 4750 
z
" transform="scale(0.015625)"/>
        <path id="DejaVuSans-2e" d="M 684 794 
L 1344 794 
L 1344 0 
L 684 0 
L 684 794 
z
" transform="scale(0.015625)"/>
       </defs>
       <use xlink:href="#DejaVuSans-30"/>
       <use xlink:href="#DejaVuSans-2e" transform="translate(63.623047 0)"/>
       <use xlink:href="#DejaVuSans-30" transform="translate(95.410156 0)"/>
      </g>
     </g>
    </g>
    <g id="ytick_2">
     <g id="line2d_4">
      <g>
       <use xlink:href="#m3fa0dc0b59" x="90" y="205.926918" style="stroke: #000000; stroke-width: 0.8"/>
      </g>
     </g>
     <g id="text_5">
      <!-- 0.2 -->
      <g transform="translate(67.096875 209.726137) scale(0.1 -0.1)">
       <defs>
        <path id="DejaVuSans-32" d="M 1228 531 
L 3431 531 
L 3431 0 
L 469 0 
L 469 531 
Q 828 903 1448 1529 
Q 2069 2156 2228 2338 
Q 2531 2678 2651 2914 
Q 2772 3150 2772 3378 
Q 2772 3750 2511 3984 
Q 2250 4219 1831 4219 
Q 1534 4219 1204 4116 
Q 875 4013 500 3803 
L 500 4441 
Q 881 4594 1212 4672 
Q 1544 4750 1819 4750 
Q 2544 4750 2975 4387 
Q 3406 4025 3406 3419 
Q 3406 3131 3298 2873 
Q 3191 2616 2906 2266 
Q 2828 2175 2409 1742 
Q 1991 1309 1228 531 
z
" transform="scale(0.015625)"/>
       </defs>
       <use xlink:href="#DejaVuSans-30"/>
       <use xlink:href="#DejaVuSans-2e" transform="translate(63.623047 0)"/>
       <use xlink:href="#DejaVuSans-32" transform="translate(95.410156 0)"/>
      </g>
     </g>
    </g>
    <g id="ytick_3">
     <g id="line2d_5">
      <g>
       <use xlink:href="#m3fa0dc0b59" x="90" y="165.604684" style="stroke: #000000; stroke-width: 0.8"/>
      </g>
     </g>
     <g id="text_6">
      <!-- 0.4 -->
      <g transform="translate(67.096875 169.403903) scale(0.1 -0.1)">
       <defs>
        <path id="DejaVuSans-34" d="M 2419 4116 
L 825 1625 
L 2419 1625 
L 2419 4116 
z
M 2253 4666 
L 3047 4666 
L 3047 1625 
L 3713 1625 
L 3713 1100 
L 3047 1100 
L 3047 0 
L 2419 0 
L 2419 1100 
L 313 1100 
L 313 1709 
L 2253 4666 
z
" transform="scale(0.015625)"/>
       </defs>
       <use xlink:href="#DejaVuSans-30"/>
       <use xlink:href="#DejaVuSans-2e" transform="translate(63.623047 0)"/>
       <use xlink:href="#DejaVuSans-34" transform="translate(95.410156 0)"/>
      </g>
     </g>
    </g>
    <g id="ytick_4">
     <g id="line2d_6">
      <g>
       <use xlink:href="#m3fa0dc0b59" x="90" y="125.282449" style="stroke: #000000; stroke-width: 0.8"/>
      </g>
     </g>
     <g id="text_7">
      <!-- 0.6 -->
      <g transform="translate(67.096875 129.081668) scale(0.1 -0.1)">
       <defs>
        <path id="DejaVuSans-36" d="M 2113 2584 
Q 1688 2584 1439 2293 
Q 1191 2003 1191 1497 
Q 1191 994 1439 701 
Q 1688 409 2113 409 
Q 2538 409 2786 701 
Q 3034 994 3034 1497 
Q 3034 2003 2786 2293 
Q 2538 2584 2113 2584 
z
M 3366 4563 
L 3366 3988 
Q 3128 4100 2886 4159 
Q 2644 4219 2406 4219 
Q 1781 4219 1451 3797 
Q 1122 3375 1075 2522 
Q 1259 2794 1537 2939 
Q 1816 3084 2150 3084 
Q 2853 3084 3261 2657 
Q 3669 2231 3669 1497 
Q 3669 778 3244 343 
Q 2819 -91 2113 -91 
Q 1303 -91 875 529 
Q 447 1150 447 2328 
Q 447 3434 972 4092 
Q 1497 4750 2381 4750 
Q 2619 4750 2861 4703 
Q 3103 4656 3366 4563 
z
" transform="scale(0.015625)"/>
       </defs>
       <use xlink:href="#DejaVuSans-30"/>
       <use xlink:href="#DejaVuSans-2e" transform="translate(63.623047 0)"/>
       <use xlink:href="#DejaVuSans-36" transform="translate(95.410156 0)"/>
      </g>
     </g>
    </g>
    <g id="ytick_5">
     <g id="line2d_7">
      <g>
       <use xlink:href="#m3fa0dc0b59" x="90" y="84.960215" style="stroke: #000000; stroke-width: 0.8"/>
      </g>
     </g>
     <g id="text_8">
      <!-- 0.8 -->
      <g transform="translate(67.096875 88.759433) scale(0.1 -0.1)">
       <defs>
        <path id="DejaVuSans-38" d="M 2034 2216 
Q 1584 2216 1326 1975 
Q 1069 1734 1069 1313 
Q 1069 891 1326 650 
Q 1584 409 2034 409 
Q 2484 409 2743 651 
Q 3003 894 3003 1313 
Q 3003 1734 2745 1975 
Q 2488 2216 2034 2216 
z
M 1403 2484 
Q 997 2584 770 2862 
Q 544 3141 544 3541 
Q 544 4100 942 4425 
Q 1341 4750 2034 4750 
Q 2731 4750 3128 4425 
Q 3525 4100 3525 3541 
Q 3525 3141 3298 2862 
Q 3072 2584 2669 2484 
Q 3125 2378 3379 2068 
Q 3634 1759 3634 1313 
Q 3634 634 3220 271 
Q 2806 -91 2034 -91 
Q 1263 -91 848 271 
Q 434 634 434 1313 
Q 434 1759 690 2068 
Q 947 2378 1403 2484 
z
M 1172 3481 
Q 1172 3119 1398 2916 
Q 1625 2713 2034 2713 
Q 2441 2713 2670 2916 
Q 2900 3119 2900 3481 
Q 2900 3844 2670 4047 
Q 2441 4250 2034 4250 
Q 1625 4250 1398 4047 
Q 1172 3844 1172 3481 
z
" transform="scale(0.015625)"/>
       </defs>
       <use xlink:href="#DejaVuSans-30"/>
       <use xlink:href="#DejaVuSans-2e" transform="translate(63.623047 0)"/>
       <use xlink:href="#DejaVuSans-38" transform="translate(95.410156 0)"/>
      </g>
     </g>
    </g>
    <g id="ytick_6">
     <g id="line2d_8">
      <g>
       <use xlink:href="#m3fa0dc0b59" x="90" y="44.63798" style="stroke: #000000; stroke-width: 0.8"/>
      </g>
     </g>
     <g id="text_9">
      <!-- 1.0 -->
      <g transform="translate(67.096875 48.437199) scale(0.1 -0.1)">
       <defs>
        <path id="DejaVuSans-31" d="M 794 531 
L 1825 531 
L 1825 4091 
L 703 3866 
L 703 4441 
L 1819 4666 
L 2450 4666 
L 2450 531 
L 3481 531 
L 3481 0 
L 794 0 
L 794 531 
z
" transform="scale(0.015625)"/>
       </defs>
       <use xlink:href="#DejaVuSans-31"/>
       <use xlink:href="#DejaVuSans-2e" transform="translate(63.623047 0)"/>
       <use xlink:href="#DejaVuSans-30" transform="translate(95.410156 0)"/>
      </g>
     </g>
    </g>
    <g id="text_10">
     <!-- $\psi(x)$ -->
     <g transform="translate(60.996875 155.64) rotate(-90) scale(0.1 -0.1)">
      <defs>
       <path id="DejaVuSans-Oblique-3c8" d="M 1591 -78 
Q 891 38 616 341 
Q 278 713 425 1472 
L 819 3500 
L 1400 3500 
L 1009 1494 
Q 900 922 1119 684 
Q 1313 478 1691 434 
L 2284 3500 
L 2856 3500 
L 2263 438 
Q 2681 481 2928 688 
Q 3247 950 3353 1497 
L 3741 3500 
L 4322 3500 
L 3928 1475 
Q 3775 688 3300 344 
Q 2872 34 2163 -75 
L 1919 -1331 
L 1347 -1331 
L 1591 -78 
z
" transform="scale(0.015625)"/>
       <path id="DejaVuSans-28" d="M 1984 4856 
Q 1566 4138 1362 3434 
Q 1159 2731 1159 2009 
Q 1159 1288 1364 580 
Q 1569 -128 1984 -844 
L 1484 -844 
Q 1016 -109 783 600 
Q 550 1309 550 2009 
Q 550 2706 781 3412 
Q 1013 4119 1484 4856 
L 1984 4856 
z
" transform="scale(0.015625)"/>
       <path id="DejaVuSans-29" d="M 513 4856 
L 1013 4856 
Q 1481 4119 1714 3412 
Q 1947 2706 1947 2009 
Q 1947 1309 1714 600 
Q 1481 -109 1013 -844 
L 513 -844 
Q 928 -128 1133 580 
Q 1338 1288 1338 2009 
Q 1338 2731 1133 3434 
Q 928 4138 513 4856 
z
" transform="scale(0.015625)"/>
      </defs>
      <use xlink:href="#DejaVuSans-Oblique-3c8" transform="translate(0 0.125)"/>
      <use xlink:href="#DejaVuSans-28" transform="translate(65.966797 0.125)"/>
      <use xlink:href="#DejaVuSans-Oblique-78" transform="translate(104.980469 0.125)"/>
      <use xlink:href="#DejaVuSans-29" transform="translate(164.160156 0.125)"/>
     </g>
    </g>
   </g>
   <g id="line2d_9">
    <path d="M 90 179.880169 
L 92.792793 170.707165 
L 96.144144 158.939762 
L 100.054054 144.372124 
L 106.756757 118.286018 
L 112.342342 96.875414 
L 115.693694 84.84907 
L 118.486486 75.602061 
L 120.720721 68.85126 
L 122.954955 62.777075 
L 125.189189 57.465901 
L 126.864865 54.030106 
L 128.540541 51.09576 
L 130.216216 48.687561 
L 131.333333 47.384683 
L 132.45045 46.329788 
L 133.567568 45.526901 
L 134.684685 44.979096 
L 135.801802 44.688477 
L 136.918919 44.65616 
L 138.036036 44.88227 
L 139.153153 45.365937 
L 140.27027 46.105304 
L 141.387387 47.097538 
L 142.504505 48.338848 
L 143.621622 49.824511 
L 145.297297 52.498613 
L 146.972973 55.687022 
L 148.648649 59.363051 
L 150.324324 63.496312 
L 152.558559 69.659966 
L 154.792793 76.48889 
L 157.585586 85.816499 
L 160.936937 97.913514 
L 165.405405 115.013749 
L 175.459459 153.826529 
L 179.369369 167.838238 
L 182.720721 178.991121 
L 185.513514 187.582983 
L 188.306306 195.485835 
L 191.099099 202.6748 
L 193.891892 209.144312 
L 196.126126 213.808937 
L 198.36036 218.032282 
L 200.594595 221.831386 
L 202.828829 225.227107 
L 205.063063 228.243206 
L 207.297297 230.905495 
L 209.531532 233.241054 
L 211.765766 235.277535 
L 214 237.042548 
L 216.234234 238.563154 
L 219.027027 240.159843 
L 221.81982 241.463353 
L 224.612613 242.517857 
L 227.963964 243.510414 
L 231.315315 244.262013 
L 235.225225 244.902208 
L 239.693694 245.401944 
L 245.279279 245.788092 
L 252.540541 246.049884 
L 263.711712 246.199836 
L 284.378378 246.219805 
L 299.459459 246.049884 
L 307.279279 245.758462 
L 312.864865 245.350385 
L 317.333333 244.823896 
L 321.243243 244.151195 
L 324.594595 243.363238 
L 327.945946 242.324898 
L 330.738739 241.223925 
L 333.531532 239.865444 
L 335.765766 238.563154 
L 338 237.042548 
L 340.234234 235.277535 
L 342.468468 233.241054 
L 344.702703 230.905495 
L 346.936937 228.243206 
L 349.171171 225.227107 
L 351.405405 221.831386 
L 353.63964 218.032282 
L 355.873874 213.808937 
L 358.108108 209.144312 
L 360.342342 204.026125 
L 363.135135 196.98118 
L 365.927928 189.219768 
L 368.720721 180.762714 
L 371.513514 171.651916 
L 374.864865 159.948705 
L 378.774775 145.436336 
L 384.918919 121.566679 
L 391.063063 97.913514 
L 394.414414 85.816499 
L 397.207207 76.48889 
L 399.441441 69.659966 
L 401.675676 63.496312 
L 403.90991 58.085332 
L 405.585586 54.568641 
L 407.261261 51.548896 
L 408.936937 49.051466 
L 410.054054 47.687332 
L 411.171171 46.570027 
L 412.288288 45.703812 
L 413.405405 45.092002 
L 414.522523 44.736943 
L 415.63964 44.64 
L 416.756757 44.801546 
L 417.873874 45.220959 
L 418.990991 45.896628 
L 420.108108 46.825964 
L 421.225225 48.005412 
L 422.342342 49.43048 
L 424.018018 52.01655 
L 425.693694 55.120989 
L 427.369369 58.717764 
L 429.045045 62.777075 
L 431.279279 68.85126 
L 433.513514 75.602061 
L 436.306306 84.84907 
L 439.657658 96.875414 
L 444.126126 113.925718 
L 454.738739 154.857937 
L 458.648649 168.800245 
L 462 179.880169 
L 464.792793 188.404846 
L 467.585586 196.237092 
L 470.378378 203.354064 
L 473.171171 209.751993 
L 475.405405 214.36068 
L 477.63964 218.529975 
L 479.873874 222.277449 
L 482.108108 225.624367 
L 484.342342 228.594795 
L 486.576577 231.214743 
L 488.810811 233.511401 
L 491.045045 235.512445 
L 493.279279 237.245444 
L 495.513514 238.737358 
L 498.306306 240.302626 
L 501.099099 241.579316 
L 503.891892 242.611186 
L 507.243243 243.581484 
L 510.594595 244.31544 
L 514.504505 244.939893 
L 518.972973 245.426703 
L 524.558559 245.802283 
L 531.81982 246.05642 
L 542.990991 246.201607 
L 563.657658 246.218681 
L 578.18018 246.05642 
L 586 245.773488 
L 591.585586 245.37651 
L 596.054054 244.86355 
L 599.963964 244.207274 
L 603.315315 243.437676 
L 606.666667 242.42244 
L 609.459459 241.344903 
L 612.252252 240.014131 
L 614.486486 238.737358 
L 616.720721 237.245444 
L 618.954955 235.512445 
L 621.189189 233.511401 
L 623.423423 231.214743 
L 625.657658 228.594795 
L 627.891892 225.624367 
L 630.126126 222.277449 
L 632.36036 218.529975 
L 634.594595 214.36068 
L 636.828829 209.751993 
L 639.063063 204.690987 
L 641.297297 199.170326 
L 644.09009 191.622571 
L 646.882883 183.370807 
L 648 179.880169 
L 648 179.880169 
" clip-path="url(#p49d3d31a26)" style="fill: none; stroke-dasharray: 1.5,2.475; stroke-dashoffset: 0; stroke: #000000; stroke-width: 1.5"/>
   </g>
   <g id="line2d_10">
    <path d="M 229.5 256.32 
L 229.5 34.56 
" clip-path="url(#p49d3d31a26)" style="fill: none; stroke: #808080; stroke-opacity: 0.7; stroke-width: 1.5; stroke-linecap: square"/>
   </g>
   <g id="line2d_11">
    <path d="M 508.5 256.32 
L 508.5 34.56 
" clip-path="url(#p49d3d31a26)" style="fill: none; stroke: #808080; stroke-opacity: 0.7; stroke-width: 1.5; stroke-linecap: square"/>
   </g>
   <g id="patch_3">
    <path d="M 90 256.32 
L 90 34.56 
" style="fill: none; stroke: #000000; stroke-width: 0.8; stroke-linejoin: miter; stroke-linecap: square"/>
   </g>
   <g id="patch_4">
    <path d="M 648 256.32 
L 648 34.56 
" style="fill: none; stroke: #000000; stroke-width: 0.8; stroke-linejoin: miter; stroke-linecap: square"/>
   </g>
   <g id="patch_5">
    <path d="M 90 256.32 
L 648 256.32 
" style="fill: none; stroke: #000000; stroke-width: 0.8; stroke-linejoin: miter; stroke-linecap: square"/>
   </g>
   <g id="patch_6">
    <path d="M 90 34.56 
L 648 34.56 
" style="fill: none; stroke: #000000; stroke-width: 0.8; stroke-linejoin: miter; stroke-linecap: square"/>
   </g>
   <g id="legend_1">
    <g id="patch_7">
     <path d="M 588.6 57.26 
L 641 57.26 
Q 643 57.26 643 55.26 
L 643 41.56 
Q 643 39.56 641 39.56 
L 588.6 39.56 
Q 586.6 39.56 586.6 41.56 
L 586.6 55.26 
Q 586.6 57.26 588.6 57.26 
z
" style="fill: #ffffff; opacity: 0.8; stroke: #cccccc; stroke-linejoin: miter"/>
    </g>
    <g id="line2d_12">
     <path d="M 590.6 47.66 
L 600.6 47.66 
L 610.6 47.66 
" style="fill: none; stroke-dasharray: 1.5,2.475; stroke-dashoffset: 0; stroke: #000000; stroke-width: 1.5"/>
    </g>
    <g id="text_11">
     <!-- $\psi(x)$ -->
     <g transform="translate(618.6 51.16) scale(0.1 -0.1)">
      <use xlink:href="#DejaVuSans-Oblique-3c8" transform="translate(0 0.125)"/>
      <use xlink:href="#DejaVuSans-28" transform="translate(65.966797 0.125)"/>
      <use xlink:href="#DejaVuSans-Oblique-78" transform="translate(104.980469 0.125)"/>
      <use xlink:href="#DejaVuSans-29" transform="translate(164.160156 0.125)"/>
     </g>
    </g>
   </g>
  </g>
 </g>
 <defs>
  <clipPath id="p49d3d31a26">
   <rect x="90" y="34.56" width="558" height="221.76"/>
  </clipPath>
 </defs>
</svg>
